<svg enable-background="new 0 0 1680 768" viewBox="0 0 1680 768" xmlns="http://www.w3.org/2000/svg" xmlns:xlink="http://www.w3.org/1999/xlink"><clipPath id="a"><path d="m160 321.65h292v139.35h-292z"/></clipPath><clipPath id="b"><path d="m160 321.65h292v139.35h-292z"/></clipPath><clipPath id="c"><path d="m155.66 266.61h300.67v202.26h-300.67z"/></clipPath><path d="m174 261h296v296h-296z" fill="#73737f" stroke="#000" stroke-miterlimit="10" stroke-width="4"/><path d="m158 241h296v296h-296z" style="fill:#fff;stroke:#000;stroke-width:4;stroke-linecap:round;stroke-linejoin:round;stroke-miterlimit:10"/><g clip-path="url(#a)"><g clip-path="url(#b)" opacity=".53"><path clip-path="url(#c)" d="m160 321.65h292v139.35h-292z" fill="#e6e2df"/></g></g><g fill="none" stroke="#000" stroke-linejoin="round" stroke-miterlimit="10" stroke-width="4"><path d="m336 456s-58-44-20-103 59-51 59-51 12 6 6 25-67 178-100 201c-13.63-15.45 8.24-76.3 64.12-97.05 8.52-3.16 17.79-3.41 26.64-1.34 13.69 3.22 19.24-2.61 19.24-2.61s-10 7-17 5c-4.59-1.31-9.19-2.62-13.78.3-9.35 5.96-7.23 20.4 3.33 23.78.08.02.15.05.22.07 3.19.98 6.71.43 9.39-1.56 1.98-1.48 4.17-3.84 5.84-7.59 3.09-6.95-.38-10.92-2.12-12.37-1-.83-1.96-1.71-2.88-2.63" stroke-linecap="round"/><path d="m280.5 265.5-8 23s6.5-32.5-21.5-11.5c-24.67 18.5-35.36 41.66-37.56 46.91-.52 1.25-.82 2.58-.78 3.93.11 3.98 3.12 9.44 23.34-2.84 0 0-31 26-35 51s7 29 7 29 7 5 23-11c0 0 48.31-47.48 62.83-77.06 2.59-5.28 3.78-11.18 3.1-17.03-1.12-9.67-6.08-8.64-9.97-6.14-2.8 1.79-5.05 4.32-6.67 7.22-5.89 10.58-24.83 47.09-22.29 75.01 0 0 6 18 22 4 15.46-13.53 42.14-44.81 52.94-79.39.94-3.01 1.1-6.24.26-9.28-1.69-6.1-5.45-4.55-8.15-2.38-1.77 1.42-3.17 3.22-4.22 5.23-4.81 9.25-22.38 46.05-12.83 73.82 0 0 3 9 12 2 0 0 14-17 25-14s11 13 11 13-10-23-23-4c-8.53 12.47-7.16 18.48-5.2 21.14 1.05 1.42 2.84 2.12 4.59 1.87 4.05-.58 12.6-4.32 20.61-24 0 0-9 22 1 27"/></g></svg>