<svg xmlns="http://www.w3.org/2000/svg" viewBox="0 0 329 332.37"><title>logo</title><g id="sq2"><polygon points="327 172.05 327 152.25 181.25 298 201.05 298 327 172.05" style="stroke:#000;stroke-miterlimit:10;stroke-width:4px"/><polygon points="327 129.62 327 109.82 138.82 298 158.62 298 327 129.62" style="stroke:#000;stroke-miterlimit:10;stroke-width:4px"/><polygon points="327 214.47 327 194.67 223.67 298 243.47 298 327 214.47" style="stroke:#000;stroke-miterlimit:10;stroke-width:4px"/><polygon points="96.39 298 116.19 298 327 87.19 327 67.39 96.39 298" style="stroke:#000;stroke-miterlimit:10;stroke-width:4px"/><polygon points="327 44.77 327 2 233.23 2 300.41 69.17 289.09 80.49 210.6 2 190.81 2 279.19 90.39 267.88 101.7 168.18 2 148.38 2 257.98 111.6 246.67 122.92 125.75 2 105.95 2 236.77 132.81 225.45 144.13 83.33 2 63.53 2 215.56 154.03 204.24 165.34 40.9 2 31 2 31 11.9 194.34 175.24 183.03 186.56 31 34.53 31 54.33 173.13 196.45 161.81 207.77 31 76.95 31 96.75 151.91 217.67 140.6 228.98 31 119.38 31 139.18 130.7 238.88 119.39 250.19 31 161.81 31 181.6 109.49 260.09 98.17 271.41 31 204.23 31 298 73.77 298 327 44.77" style="stroke:#000;stroke-miterlimit:10;stroke-width:4px"/><polygon points="327 256.9 327 237.1 266.1 298 285.9 298 327 256.9" style="stroke:#000;stroke-miterlimit:10;stroke-width:4px"/><polygon points="327 279.53 308.53 298 327 298 327 279.53" style="stroke:#000;stroke-miterlimit:10;stroke-width:4px"/></g><g id="sq"><rect x="2" y="34.19" width="295" height="296.18" style="fill:#fff;stroke:#000;stroke-miterlimit:10;stroke-width:4px"/></g><g id="yellow"><rect x="39" y="73" width="221" height="218" style="fill:#f6ae2d"/></g><g id="ella"><path d="M220.79,286.63s-56.68-43-19.54-100.66,57.66-49.84,57.66-49.84,11.72,5.86,5.86,24.43S199.29,334.52,167,357c-13.32-15.1,8.06-74.57,62.66-94.84a45.11,45.11,0,0,1,26-1.31c13.39,3.14,18.81-2.56,18.81-2.56s-9.77,6.84-16.61,4.89c-4.49-1.28-9-2.57-13.47.29-9.14,5.83-7.07,19.94,3.26,23.24l.22.07a10.31,10.31,0,0,0,9.17-1.52,18.36,18.36,0,0,0,5.71-7.42c3-6.79-.38-10.67-2.08-12.09-1-.81-1.91-1.67-2.81-2.57h0" transform="translate(-32 -37)" style="fill:none;stroke:#000;stroke-linecap:round;stroke-linejoin:round;stroke-width:4px"/><path d="M166.55,100.46l-7.82,22.48s6.36-31.77-21-11.24c-24.11,18.08-34.56,40.71-36.71,45.84a9.24,9.24,0,0,0-.76,3.84c.11,3.89,3,9.23,22.81-2.77,0,0-30.29,25.41-34.2,49.84s6.84,28.34,6.84,28.34,6.84,4.89,22.47-10.75c0,0,47.22-46.4,61.41-75.31a30,30,0,0,0,3-16.64c-1.1-9.45-5.94-8.44-9.75-6a19.64,19.64,0,0,0-6.52,7.06c-5.75,10.34-24.26,46-21.78,73.3,0,0,5.87,17.59,21.5,3.91,15.12-13.23,41.19-43.8,51.74-77.59a16.1,16.1,0,0,0,.25-9.07c-1.64-6-5.33-4.44-8-2.33a15.94,15.94,0,0,0-4.12,5.11c-4.71,9-21.87,45-12.54,72.15,0,0,2.93,8.8,11.73,2,0,0,13.68-16.62,24.43-13.69s10.75,12.71,10.75,12.71-9.78-22.48-22.48-3.91c-8.34,12.19-7,18.06-5.09,20.66a4.74,4.74,0,0,0,4.49,1.82c4-.57,12.31-4.22,20.15-23.46,0,0-8.8,21.5,1,26.39" transform="translate(-32 -37)" style="fill:none;stroke:#000;stroke-linejoin:round;stroke-width:4px"/></g></svg>